<svg width="1447" height="982" viewBox="0 0 1447 982" fill="none" xmlns="http://www.w3.org/2000/svg">
<g opacity="0.3">
<mask id="mask0_1_3" style="mask-type:alpha" maskUnits="userSpaceOnUse" x="64" y="54" width="1319" height="865">
<ellipse cx="723.5" cy="486.5" rx="659.5" ry="432.5" fill="#D9D9D9"/>
</mask>
<g mask="url(#mask0_1_3)">
<path d="M311.045 712.244H1166.96M311.045 663.191H1166.96M311.045 614.137H1166.96M311.045 565.084H1166.96M311.045 516.031H1166.96M311.045 466.967H1166.96M311.045 417.913H1166.96M311.045 368.86H1166.96M311.045 319.807H1166.96M311.045 270.753H1166.96M1089.15 221.7V761.298M1011.33 221.7V761.298M933.525 221.7V761.298M855.718 221.7V761.298M777.91 221.7V761.298M700.092 221.7V761.298M622.285 221.7V761.298M544.477 221.7V761.298M466.67 221.7V761.298M388.852 221.7V761.298M-260.258 950.886L310.785 711.859M-260.258 848.8L310.785 662.889M-260.258 746.714L310.785 613.919M-260.258 644.628L310.785 564.949M-260.258 542.542L310.785 515.979M-260.258 440.456L310.785 467.019M-260.258 338.37L310.785 418.049M-260.258 236.284L310.785 369.079M-260.258 134.198L310.785 320.109M-260.258 32.1115L310.785 271.139M284.644 208.793V774.204M255.777 194.022V788.975M223.726 177.626V805.372M187.928 159.313V823.685M147.708 138.739V844.258M102.16 115.437V867.561M50.1812 88.8422V894.155M-9.70673 58.2059V924.791M-79.4702 22.5175V960.48M-161.752 -19.5774V1002.57M1738.2 950.886L1167.16 711.859M1738.2 848.8L1167.16 662.889M1738.2 746.714L1167.16 613.919M1738.2 644.628L1167.16 564.949M1738.2 542.542L1167.16 515.979M1738.2 440.456L1167.16 467.019M1738.2 338.37L1167.16 418.049M1738.2 236.284L1167.16 369.079M1738.2 134.198L1167.16 320.109M1738.2 32.1115L1167.16 271.139M1193.29 208.793V774.204M1222.16 194.022V788.975M1254.21 177.626V805.372M1290 159.313V823.685M1330.23 138.739V844.258M1375.77 115.437V867.561M1427.75 88.8422V894.155M1487.65 58.2059V924.791M1557.4 22.5175V960.48M1639.68 -19.5774V1002.57M287.756 209.449L1189.62 209.241M261.584 196.126L1215.78 195.918M232.186 181.157L1245.17 180.959M198.928 164.219L1278.42 164.032M160.987 144.906L1316.33 144.729M117.312 122.666L1359.96 122.51M66.4877 96.7903L1410.72 96.6549M6.61023 66.2999L1470.52 66.2166M-64.9847 29.8406L1541.99 29.8198M-152.106 -14.5147L1628.93 -14.4418M1555.78 -69.4745L1088.53 221.2M1374.52 -69.4954L1010.86 221.221M1193.18 -69.5162L933.182 221.242M1011.77 -69.5266L855.478 221.252M830.264 -69.5475L777.775 221.273M648.685 -69.5683L700.051 221.294M467.024 -69.5891L622.306 221.314M285.289 -69.61L544.55 221.335M103.471 -69.6308L466.784 221.356M-78.4295 -69.6516L388.998 221.377M287.547 773.142L1190.73 773.35M261.334 786.465L1216.93 786.673M231.895 801.434L1246.36 801.642M198.585 818.372L1279.65 818.56M160.591 837.685L1317.62 837.862M116.854 859.925L1361.31 860.081M65.957 885.801L1412.15 885.936M5.99628 916.291L1472.04 916.385M-65.7027 952.75L1543.61 952.771M-152.949 997.106L1630.68 997.043M1557.42 1052.07L1089.48 761.391M1375.9 1052.09L1011.71 761.37M1194.3 1052.11L933.91 761.36M1012.61 1052.13L856.102 761.339M830.847 1052.14L778.274 761.318M649.008 1052.16L700.436 761.298M467.086 1052.18L622.587 761.277M285.081 1052.2L544.717 761.256M102.993 1052.22L466.837 761.246M-79.1788 1052.24L388.935 761.225M311.045 221.7H1166.96V761.298H311.045V221.7ZM-260.258 -69.9746L310.785 222.169V760.829L-260.258 1052.97V-69.9746ZM1738.2 -69.9746L1167.16 222.169V760.829L1738.2 1052.97V-69.9746ZM-260.414 -69.662L1736.96 -69.4537L1166.18 221.179L311.201 221.387L-260.414 -69.662ZM-261.423 1052.26L1738.86 1052.04L1167.25 761.412L311.024 761.204L-261.423 1052.26Z" stroke="#DCDCDC" stroke-miterlimit="10"/>
</g>
</g>
</svg>
